<!DOCTYPE svg PUBLIC "-//W3C//DTD SVG 1.1//EN" "http://www.w3.org/Graphics/SVG/1.1/DTD/svg11.dtd">
<!-- Created with ASCIItoSVG -->
<svg width="576px" height="304px" version="1.1" xmlns="http://www.w3.org/2000/svg" xmlns:xlink="http://www.w3.org/1999/xlink">
  <defs>
    <filter id="dsFilter" width="150%" height="150%">
      <feOffset result="offOut" in="SourceGraphic" dx="2" dy="2"/>
      <feColorMatrix result="matrixOut" in="offOut" type="matrix" values="0.2 0 0 0 0 0 0.2 0 0 0 0 0 0.2 0 0 0 0 0 1 0"/>
      <feGaussianBlur result="blurOut" in="matrixOut" stdDeviation="3"/>
      <feBlend in="SourceGraphic" in2="blurOut" mode="normal"/>
    </filter>
    <marker id="iPointer"
      viewBox="0 0 10 10" refX="5" refY="5"
      markerUnits="strokeWidth"
      markerWidth="8" markerHeight="15"
      orient="auto">
      <path d="M 10 0 L 10 10 L 0 5 z" />
    </marker>
    <marker id="Pointer"
      viewBox="0 0 10 10" refX="5" refY="5"
      markerUnits="strokeWidth"
      markerWidth="8" markerHeight="15"
      orient="auto">
      <path d="M 0 0 L 10 5 L 0 10 z" />
    </marker>
  </defs>
  <g id="closed" stroke="#000" stroke-width="2" fill="none">
    <path id="closed3" fill="#fff" d="M 247.5 56 L 256.5 56 L 265.5 56 L 274.5 56 L 283.5 56 L 292.5 56 L 301.5 56 L 310.5 56 L 310.5 72 L 310.5 88 L 310.5 104 L 310.5 120 L 301.5 120 L 292.5 120 L 283.5 120 L 274.5 120 L 265.5 120 L 256.5 120 L 247.5 120 L 247.5 104 L 247.5 88 L 247.5 72 Z" />
    <path id="closed21" fill="#fff" d="M 112.5 216 L 121.5 216 L 130.5 216 L 139.5 216 L 148.5 216 L 157.5 216 L 166.5 216 L 175.5 216 L 175.5 232 L 175.5 248 L 175.5 264 L 175.5 280 L 166.5 280 L 157.5 280 L 148.5 280 L 139.5 280 L 130.5 280 L 121.5 280 L 112.5 280 L 112.5 264 L 112.5 248 L 112.5 232 Z" />
    <path id="closed22" fill="#fff" d="M 382.5 216 L 391.5 216 L 400.5 216 L 409.5 216 L 418.5 216 L 427.5 216 L 436.5 216 L 445.5 216 L 445.5 232 L 445.5 248 L 445.5 264 L 445.5 280 L 436.5 280 L 427.5 280 L 418.5 280 L 409.5 280 L 400.5 280 L 391.5 280 L 382.5 280 L 382.5 264 L 382.5 248 L 382.5 232 Z" />
  </g>
  <g id="lines" stroke="#000" stroke-width="2" fill="none">
    <path id="open0" d="M 265.5 8 L 265.5 24 " />
    <path id="open1" d="M 265.5 8 L 274.5 8 L 283.5 8 L 292.5 8 L 292.5 24 " />
    <path id="open2" d="M 265.5 24 L 265.5 40 " />
    <path id="open4" d="M 130.5 72 L 130.5 88 " />
    <path id="open5" d="M 130.5 72 L 139.5 72 L 148.5 72 L 157.5 72 L 166.5 72 L 175.5 72 L 184.5 72 L 193.5 72 L 202.5 72 L 211.5 72 L 220.5 72 L 229.5 72 L 238.5 72 " />
    <path id="open6" d="M 319.5 72 L 328.5 72 L 337.5 72 L 346.5 72 L 355.5 72 L 364.5 72 L 373.5 72 L 382.5 72 L 391.5 72 L 400.5 72 L 409.5 72 L 418.5 72 L 427.5 72 L 427.5 88 L 427.5 104 L 427.5 120 L 427.5 136 L 427.5 152 L 427.5 168 L 427.5 184 " />
    <path id="open7" d="M 130.5 88 L 130.5 104 " />
    <path id="open8" d="M 130.5 104 L 130.5 120 " />
    <path id="open9" marker-end="url(#Pointer)" d="M 157.5 104 L 166.5 104 L 175.5 104 L 184.5 104 L 193.5 104 L 202.5 104 L 211.5 104 L 220.5 104 L 229.5 104 L 238.5 104 " />
    <path id="open10" d="M 157.5 104 L 157.5 120 " />
    <path id="open11" marker-start="url(#iPointer)" d="M 319.5 104 L 328.5 104 L 337.5 104 L 346.5 104 L 355.5 104 L 364.5 104 L 373.5 104 L 382.5 104 L 391.5 104 L 400.5 104 L 400.5 120 L 400.5 136 L 400.5 152 L 400.5 168 L 400.5 184 L 400.5 200 " />
    <path id="open12" d="M 130.5 120 L 130.5 136 " />
    <path id="open13" d="M 157.5 120 L 157.5 136 " />
    <path id="open14" d="M 130.5 136 L 130.5 152 " />
    <path id="open15" d="M 157.5 136 L 157.5 152 " />
    <path id="open16" d="M 130.5 152 L 130.5 168 " />
    <path id="open17" d="M 157.5 152 L 157.5 168 " />
    <path id="open18" d="M 130.5 168 L 130.5 184 " />
    <path id="open19" d="M 157.5 168 L 157.5 184 " />
    <path id="open20" d="M 157.5 184 L 157.5 200 " />
    <path id="open23" d="M 67.5 232 L 67.5 248 " />
    <path id="open24" d="M 67.5 232 L 76.5 232 L 85.5 232 L 94.5 232 L 103.5 232 " />
    <path id="open25" marker-end="url(#Pointer)" d="M 454.5 232 L 463.5 232 L 472.5 232 L 481.5 232 L 490.5 232 L 490.5 248 L 490.5 264 L 481.5 264 L 472.5 264 L 463.5 264 L 454.5 264 " />
    <path id="open26" d="M 67.5 248 L 67.5 264 " />
    <path id="open27" marker-end="url(#Pointer)" d="M 184.5 248 L 193.5 248 L 202.5 248 L 211.5 248 L 220.5 248 L 229.5 248 L 238.5 248 L 247.5 248 L 256.5 248 L 265.5 248 L 274.5 248 L 283.5 248 L 292.5 248 L 301.5 248 L 310.5 248 L 319.5 248 L 328.5 248 L 337.5 248 L 346.5 248 L 355.5 248 L 364.5 248 L 373.5 248 " />
    <path id="open28" marker-end="url(#Pointer)" d="M 67.5 264 L 76.5 264 L 85.5 264 L 94.5 264 L 103.5 264 " />
  </g>
  <g id="text" stroke="none" style="font-family:Consolas,Monaco,Anonymous Pro,Anonymous,Bitstream Sans Mono,monospace;font-size:15.2px" >
    <text id="obj29" x="310.5" y="24" fill="#000">UP, ADMIN DOWN, TIMER</text>
    <text id="obj30" x="292.5" y="40" fill="#000">V</text>
    <text id="obj31" x="193.5" y="56" fill="#000">DOWN</text>
    <text id="obj32" x="337.5" y="56" fill="#000">INIT</text>
    <text id="obj33" x="265.5" y="88" fill="#000">DOWN</text>
    <text id="obj34" x="301.5" y="152" fill="#000">ADMIN DOWN,</text>
    <text id="obj35" x="166.5" y="168" fill="#000">ADMIN DOWN,</text>
    <text id="obj36" x="355.5" y="168" fill="#000">DOWN,</text>
    <text id="obj37" x="166.5" y="184" fill="#000">TIMER</text>
    <text id="obj38" x="355.5" y="184" fill="#000">TIMER</text>
    <text id="obj39" x="130.5" y="200" fill="#000">V</text>
    <text id="obj40" x="427.5" y="200" fill="#000">V</text>
    <text id="obj41" x="31.5" y="248" fill="#000">DOWN</text>
    <text id="obj42" x="130.5" y="248" fill="#000">INIT</text>
    <text id="obj43" x="409.5" y="248" fill="#000">UP</text>
    <text id="obj44" x="499.5" y="248" fill="#000">INIT, UP</text>
    <text id="obj45" x="193.5" y="264" fill="#000">INIT, UP</text>
  </g>
</svg>
